<?xml version="1.0" encoding="iso-8859-1"?>
<!-- Generator: Adobe Illustrator 19.0.0, SVG Export Plug-In . SVG Version: 6.00 Build 0)  -->
<svg version="1.1" id="Layer_1" xmlns="http://www.w3.org/2000/svg" xmlns:xlink="http://www.w3.org/1999/xlink" x="0px" y="0px"
	 viewBox="0 0 512.001 512.001" style="enable-background:new 0 0 512.001 512.001;" xml:space="preserve">
<g>
	<g>
		<path d="M505.923,210.501l-72.534-61.633c-3.117-2.648-7.073-4.102-11.164-4.102h-67.106v-30.034
			c0-9.522-7.719-17.241-17.241-17.241H17.241C7.719,97.491,0,105.21,0,114.732v243.38c0,9.522,7.719,17.241,17.241,17.241h40.441
			c7.303,22.689,28.608,39.157,53.694,39.157c25.086,0,46.391-16.468,53.694-39.157h172.808c5.03,0,9.542-2.168,12.694-5.603h10.562
			c5.378,25.533,28.076,44.761,55.185,44.761c27.109,0,49.807-19.227,55.185-44.761h23.256c9.522,0,17.241-7.719,17.241-17.241
			V223.639C512,218.581,509.778,213.777,505.923,210.501z M111.375,380.027c-12.085,0-21.916-9.831-21.916-21.916
			c0-12.085,9.832-21.916,21.916-21.916c12.084,0,21.916,9.832,21.916,21.916C133.291,370.195,123.46,380.027,111.375,380.027z
			 M320.636,340.87L320.636,340.87H165.069c-7.303-22.69-28.608-39.157-53.694-39.157S64.985,318.18,57.681,340.87H34.483V215.411
			h286.153V340.87z M320.636,162.008L320.636,162.008l0,18.921H34.483v-48.955h286.153V162.008z M416.318,380.027
			c-12.085,0-21.916-9.831-21.916-21.916c0-12.085,9.832-21.916,21.916-21.916c12.084,0,21.916,9.832,21.916,21.916
			C438.234,370.195,428.403,380.027,416.318,380.027z M477.517,335.266h-9.653c-8.786-19.745-28.578-33.554-51.547-33.554
			s-42.761,13.809-51.547,33.554h-9.653V179.249h60.771l61.628,52.366V335.266z"/>
	</g>
</g>
<g>
	<g>
		<path d="M407.138,218.089h-13.961c-9.522,0-17.241,7.719-17.241,17.241c0,9.522,7.719,17.241,17.241,17.241h13.961
			c9.522,0,17.241-7.72,17.241-17.241C424.379,225.808,416.659,218.089,407.138,218.089z"/>
	</g>
</g>
<g>
</g>
<g>
</g>
<g>
</g>
<g>
</g>
<g>
</g>
<g>
</g>
<g>
</g>
<g>
</g>
<g>
</g>
<g>
</g>
<g>
</g>
<g>
</g>
<g>
</g>
<g>
</g>
<g>
</g>
</svg>
